<?xml version="1.0" encoding="utf-8"?>
<!-- Generator: Adobe Illustrator 19.2.1, SVG Export Plug-In . SVG Version: 6.00 Build 0)  -->
<svg version="1.1" id="Layer_1" xmlns="http://www.w3.org/2000/svg" xmlns:xlink="http://www.w3.org/1999/xlink" x="0px" y="0px"
	 viewBox="0 0 400 400" style="enable-background:new 0 0 400 400;" xml:space="preserve">
<style type="text/css">
	.st0{fill:#FFFFFF;}
	.st1{fill:#1BB9B8;}
</style>
<g>
	<circle class="st0" cx="200.1" cy="200" r="198.3"/>
	<g>
		<path class="st1" d="M200.2,244.5c-2.2,0-4.4-0.7-6.2-2.1c-7.6-5.8-14.5-12.6-20.5-19.9c-25.7-31.5-22.3-56.4-17.9-68.5
			c5.7-15.9,19.3-27.8,35.6-31.1c2.9-0.6,6-0.9,9-0.9c0,0,0,0,0.1,0c3,0,6.1,0.3,9,0.9c16.3,3.3,29.9,15.2,35.6,31.1
			c4.3,12.1,7.7,37-17.9,68.5c-6,7.4-12.9,14.1-20.5,19.9C204.5,243.7,202.4,244.5,200.2,244.5z M199.9,142.1
			c-1.6,0-3.2,0.2-4.8,0.5c-9.4,1.9-17.3,8.9-20.6,18.2c-5,14,0.2,31.4,14.6,49c3.4,4.1,7.1,8,11.1,11.6c4-3.6,7.7-7.5,11.1-11.6
			c14.4-17.7,19.6-35.1,14.6-49c-3.3-9.3-11.2-16.3-20.6-18.2c-1.6-0.3-3.2-0.5-4.8-0.5c0,0-0.1,0-0.1,0
			C200.2,142.1,200.1,142.1,199.9,142.1C199.9,142.1,199.9,142.1,199.9,142.1z"/>
	</g>
	<g>
		<path class="st1" d="M225,282h-46.9c-5.6,0-10.1-4.4-10.1-10s4.5-10,10.1-10H225c5.6,0,10.1,4.4,10.1,10S230.6,282,225,282z"/>
	</g>
</g>
</svg>
