<?xml version="1.0" encoding="utf-8"?>
<!-- Generator: Adobe Illustrator 19.2.1, SVG Export Plug-In . SVG Version: 6.00 Build 0)  -->
<svg version="1.1" id="Layer_1" xmlns="http://www.w3.org/2000/svg" xmlns:xlink="http://www.w3.org/1999/xlink" x="0px" y="0px"
	 viewBox="0 0 400 400" style="enable-background:new 0 0 400 400;" xml:space="preserve">
<style type="text/css">
	.st0{fill:#FFFFFF;}
  .st1{fill:#1BB9B8;}
</style>
<circle class="st0" cx="200.1" cy="200" r="198.3"/>
<g>
	<path class="st1" d="M181.5,237.8c-10.3-1.7-23.5-4.6-36.1-11.5c1.8-1.9,3.6-3.9,5.3-6c19.7-24.1,17-43.5,13.6-52.9
		c-4.5-12.6-15.3-22-28.1-24.6c-2.3-0.5-4.7-0.7-7.1-0.7c0,0-0.1,0-0.1,0c0,0-0.1,0-0.1,0c0,0-0.1,0-0.1,0c0,0-0.1,0-0.1,0
		c-2.4,0-4.8,0.2-7.1,0.7c-12.9,2.6-23.6,12-28.1,24.6c-3.4,9.4-6.1,28.8,13.6,52.9c1.7,2.1,3.5,4.1,5.3,6
		c-12.6,6.8-25.8,9.8-36.1,11.5c-5.5,0.9-9.2,6.1-8.3,11.5c0.8,4.9,5.1,8.4,9.9,8.4c0.5,0,1.1,0,1.6-0.1c8.4-1.4,29.3-4.8,49.4-17.8
		c20.1,13,40.9,16.4,49.4,17.8c0.5,0.1,1.1,0.1,1.6,0.1c4.8,0,9.1-3.5,9.9-8.4C190.7,243.9,187,238.7,181.5,237.8z M122.6,207.7
		c-10-12.2-13.6-24.1-10.3-33.4c2.1-6,7.2-10.4,13.2-11.7c1-0.2,2.1-0.3,3.1-0.3c0.1,0,0.1,0,0.2,0c0,0,0,0,0,0c0,0,0,0,0,0
		c1.1,0,2.2,0.1,3.3,0.3c6,1.2,11.1,5.7,13.2,11.7c3.3,9.3-0.3,21.2-10.3,33.4c-2,2.4-4.1,4.7-6.3,6.7
		C126.7,212.3,124.6,210.1,122.6,207.7z"/>
	<path class="st1" d="M318.4,237.8c-10.3-1.7-23.5-4.6-36.1-11.5c1.8-1.9,3.6-3.9,5.3-6c19.7-24.1,17-43.5,13.6-52.9
		c-4.5-12.6-15.3-22-28.1-24.6c-2.3-0.5-4.7-0.7-7.1-0.7c0,0-0.1,0-0.1,0c0,0-0.1,0-0.1,0c0,0-0.1,0-0.1,0c0,0-0.1,0-0.1,0
		c-2.4,0-4.8,0.2-7.1,0.7c-12.9,2.6-23.6,12-28.1,24.6c-3.4,9.4-6.1,28.8,13.6,52.9c1.7,2.1,3.5,4.1,5.3,6
		c-12.6,6.8-25.8,9.8-36.1,11.5c-5.5,0.9-9.2,6.1-8.3,11.5c0.8,4.9,5.1,8.4,9.9,8.4c0.5,0,1.1,0,1.6-0.1c8.4-1.4,29.3-4.8,49.4-17.8
		c20.1,13,40.9,16.4,49.4,17.8c0.5,0.1,1.1,0.1,1.6,0.1c4.8,0,9.1-3.5,9.9-8.4C327.6,243.9,323.8,238.7,318.4,237.8z M259.5,207.7
		c-10-12.2-13.6-24.1-10.3-33.4c2.1-6,7.2-10.4,13.2-11.7c1-0.2,2.1-0.3,3.1-0.3c0.1,0,0.1,0,0.2,0c0,0,0,0,0,0c0,0,0.1,0,0.1,0
		c1.1,0,2.2,0.1,3.3,0.3c6,1.2,11.1,5.7,13.2,11.7c3.3,9.3-0.3,21.2-10.3,33.4c-2,2.4-4.1,4.7-6.3,6.7
		C263.6,212.3,261.5,210.1,259.5,207.7z"/>
</g>
</svg>
