<?xml version="1.0" encoding="utf-8"?>
<!-- Generator: Adobe Illustrator 19.2.1, SVG Export Plug-In . SVG Version: 6.00 Build 0)  -->
<svg version="1.1" id="Layer_1" xmlns="http://www.w3.org/2000/svg" xmlns:xlink="http://www.w3.org/1999/xlink" x="0px" y="0px"
	 viewBox="0 0 400 400" style="enable-background:new 0 0 400 400;" xml:space="preserve">
<style type="text/css">
	.st0{fill:#FFFFFF;}
	.st1{fill:#1BB9B8;}
</style>
<g>
	<circle class="st0" cx="200.4" cy="199.7" r="198"/>
	<g>
		<g>
			<g>
				<path class="st1" d="M120,287.6c-5.1,0-9-4.1-9-9.2V149.8c0-3.4,1.6-6.5,4.6-8.1L195.5,98c0,0,0,0,0,0c2.8-1.7,6.2-1.8,9.1-0.2
					l81.8,44c3,1.6,4.7,4.7,4.7,8.1V275c0,5.1-3.9,9.2-9,9.2s-9-4.1-9-9.2V155.3l-72.8-39L129,155.3v123.1
					C129,283.5,125.1,287.6,120,287.6z"/>
			</g>
		</g>
		<g>
			<path class="st1" d="M200.4,253.9c-2,0-4.1-0.7-5.7-1.9c-5.8-4.5-11.1-9.6-15.7-15.2c-19.8-24.3-17.1-43.7-13.8-53.1
				c4.5-12.5,15.2-21.9,28-24.5c2.3-0.5,4.7-0.7,7.1-0.7c0,0,0,0,0,0c2.4,0,4.8,0.2,7.1,0.7c12.8,2.6,23.5,12,28,24.5
				c3.4,9.4,6,28.8-13.8,53.1c-4.6,5.6-9.9,10.8-15.7,15.2C204.4,253.3,202.4,253.9,200.4,253.9z M200.2,176.9
				c-1.1,0-2.2,0.1-3.3,0.3c-6.5,1.3-12,6.2-14.3,12.6c-3.5,9.9,0.3,22.5,10.7,35.3c2.2,2.7,4.5,5.2,7.1,7.6
				c2.5-2.4,4.9-4.9,7.1-7.6c10.4-12.8,14.2-25.3,10.7-35.3c-2.3-6.5-7.8-11.3-14.3-12.6c-1.1-0.2-2.2-0.3-3.3-0.3c0,0-0.1,0-0.1,0
				c-0.1,0-0.1,0-0.2,0C200.3,176.9,200.2,176.9,200.2,176.9z"/>
		</g>
		<g>
			<path class="st1" d="M224.4,288h-46.9c-5.5,0-10-4.5-10-10s4.5-10,10-10h46.9c5.5,0,10,4.5,10,10S229.9,288,224.4,288z"/>
		</g>
	</g>
</g>
</svg>
